<svg xmlns="http://www.w3.org/2000/svg" xmlns:xlink="http://www.w3.org/1999/xlink" width="1920" height="735" viewBox="0 0 1920 735">
  <defs>
    <filter id="Path_1" x="317.411" y="5" width="461.151" height="452.581" filterUnits="userSpaceOnUse">
      <feOffset dx="-5" dy="8" input="SourceAlpha"/>
      <feGaussianBlur stdDeviation="6" result="blur"/>
      <feFlood flood-opacity="0.161"/>
      <feComposite operator="in" in2="blur"/>
      <feComposite in="SourceGraphic"/>
    </filter>
    <filter id="Path_2" x="334.865" y="136.529" width="448.094" height="458.3" filterUnits="userSpaceOnUse">
      <feOffset dy="8" input="SourceAlpha"/>
      <feGaussianBlur stdDeviation="6" result="blur-2"/>
      <feFlood flood-opacity="0.161"/>
      <feComposite operator="in" in2="blur-2"/>
      <feComposite in="SourceGraphic"/>
    </filter>
    <filter id="Path_1-2" x="328.857" y="-7" width="457.122" height="457.122" filterUnits="userSpaceOnUse">
      <feOffset dx="-5" dy="8" input="SourceAlpha"/>
      <feGaussianBlur stdDeviation="6" result="blur-3"/>
      <feFlood flood-opacity="0.161"/>
      <feComposite operator="in" in2="blur-3"/>
      <feComposite in="SourceGraphic"/>
    </filter>
    <filter id="Path_2-2" x="336.925" y="129.349" width="453.452" height="453.452" filterUnits="userSpaceOnUse">
      <feOffset dy="8" input="SourceAlpha"/>
      <feGaussianBlur stdDeviation="6" result="blur-4"/>
      <feFlood flood-opacity="0.161"/>
      <feComposite operator="in" in2="blur-4"/>
      <feComposite in="SourceGraphic"/>
    </filter>
    <clipPath id="clip-Custom_Size_2">
      <rect width="1920" height="735"/>
    </clipPath>
  </defs>
  <g id="Custom_Size_2" data-name="Custom Size – 2" clip-path="url(#clip-Custom_Size_2)">
    <g id="Group_15" data-name="Group 15" transform="translate(1325.579 272.842) rotate(-44)" opacity="0.15">
      <path id="Path_1-3" data-name="Path 1" d="M49.853,0l161.1,384.6L0,192.462Z" transform="translate(188.049 0)"/>
      <path id="Path_2-3" data-name="Path 2" d="M0,65.823,398.569,191.8,187.979,0Z" transform="translate(0 192.389)"/>
    </g>
    <g id="Group_14" data-name="Group 14" transform="matrix(0.669, -0.743, 0.743, 0.669, 956.422, 311.52)" opacity="0.15">
      <path id="Path_1-4" data-name="Path 1" d="M49.853,0l161.1,384.6L0,192.462Z" transform="translate(188.049 0)"/>
      <path id="Path_2-4" data-name="Path 2" d="M0,65.823,398.569,191.8,187.979,0Z" transform="translate(0 192.389)"/>
    </g>
    <g id="Group_13" data-name="Group 13" transform="translate(212.161 306.815) rotate(-47)" opacity="0.15">
      <g transform="matrix(0.68, 0.73, -0.73, 0.68, 79.7, -364.41)" filter="url(#Path_1)">
        <path id="Path_1-5" data-name="Path 1" d="M49.853,0l161.1,384.6L0,192.462Z" transform="translate(340.41 169.28) rotate(-47)"/>
      </g>
      <g transform="matrix(0.68, 0.73, -0.73, 0.68, 79.7, -364.41)" filter="url(#Path_2)">
        <path id="Path_2-5" data-name="Path 2" d="M0,65.823,398.569,191.8,187.979,0Z" transform="translate(352.87 438.02) rotate(-47)"/>
      </g>
    </g>
    <g id="Group_12" data-name="Group 12" transform="matrix(0.682, -0.731, 0.731, 0.682, 585.14, 306.815)" opacity="0.15">
      <path id="Path_1-6" data-name="Path 1" d="M49.853,0l161.1,384.6L0,192.462Z" transform="translate(188.049 0)"/>
      <path id="Path_2-6" data-name="Path 2" d="M0,65.823,398.569,191.8,187.979,0Z" transform="translate(0 192.389)"/>
    </g>
    <g id="Group_11" data-name="Group 11" transform="translate(-148.4 311.52) rotate(-48)" opacity="0.15">
      <path id="Path_1-7" data-name="Path 1" d="M382.718,1272.55l161.1,384.6L332.865,1465.012Z" transform="translate(-144.815 -1272.55)" fill="#0d0d0d"/>
      <path id="Path_2-7" data-name="Path 2" d="M122.285,1553.813l398.569,125.974-210.59-191.8Z" transform="translate(-122.285 -1295.601)" fill="#0d0d0d"/>
    </g>
    <g id="Group_6" data-name="Group 6" transform="translate(-149.047 285.14) rotate(-45)">
      <path id="Path_1-8" data-name="Path 1" d="M382.718,1272.55l161.1,384.6L332.865,1465.012Z" transform="translate(-144.815 -1272.55)" fill="#fddb31"/>
      <path id="Path_2-8" data-name="Path 2" d="M122.285,1553.813l398.569,125.974-210.59-191.8Z" transform="translate(-122.285 -1295.601)" fill="#f9bd2c"/>
    </g>
    <g id="Group_7" data-name="Group 7" transform="translate(218.886 285.14) rotate(-45)">
      <g transform="matrix(0.71, 0.71, -0.71, 0.71, 46.85, -356.4)" filter="url(#Path_1-2)">
        <path id="Path_1-9" data-name="Path 1" d="M49.853,0l161.1,384.6L0,192.462Z" transform="translate(351.86 152.17) rotate(-45)" fill="#188dc0"/>
      </g>
      <g transform="matrix(0.71, 0.71, -0.71, 0.71, 46.85, -356.4)" filter="url(#Path_2-2)">
        <path id="Path_2-9" data-name="Path 2" d="M0,65.823,398.569,191.8,187.979,0Z" transform="translate(354.93 421.18) rotate(-45)" fill="#0e62ae"/>
      </g>
    </g>
    <g id="Group_8" data-name="Group 8" transform="matrix(0.719, -0.695, 0.695, 0.719, 589.813, 281.173)">
      <path id="Path_1-10" data-name="Path 1" d="M49.853,0l161.1,384.6L0,192.462Z" transform="translate(188.049 0)" fill="#753481"/>
      <path id="Path_2-10" data-name="Path 2" d="M0,65.823,398.569,191.8,187.979,0Z" transform="translate(0 192.389)" fill="#4f3275"/>
    </g>
    <g id="Group_9" data-name="Group 9" transform="matrix(0.695, -0.719, 0.719, 0.695, 962.407, 290.021)">
      <path id="Path_1-11" data-name="Path 1" d="M49.853,0l161.1,384.6L0,192.462Z" transform="translate(188.049 0)" fill="#fc395a"/>
      <path id="Path_2-11" data-name="Path 2" d="M0,65.823,398.569,191.8,187.979,0Z" transform="translate(0 192.389)" fill="#be3759"/>
    </g>
    <g id="Group_10" data-name="Group 10" transform="translate(1331.553 251.709) rotate(-42)">
      <path id="Path_1-12" data-name="Path 1" d="M49.853,0l161.1,384.6L0,192.462Z" transform="translate(188.049 0)" fill="#93c331"/>
      <path id="Path_2-12" data-name="Path 2" d="M0,65.823,398.569,191.8,187.979,0Z" transform="translate(0 192.389)" fill="#50b644"/>
    </g>
    <text id="Create_Organization" data-name="Create 
Organization" transform="translate(128 540)" fill="#f9bd2c" font-size="32" font-family="OpenSans-Semibold, Open Sans" font-weight="600"><tspan x="0" y="0">Create </tspan><tspan x="0" y="40">Organization</tspan></text>
    <text id="Onboard_Org_Users" data-name="Onboard Org 
Users" transform="translate(489 540)" fill="#0e62ae" font-size="32" font-family="OpenSans-Semibold, Open Sans" font-weight="600"><tspan x="0" y="0">Onboard Org </tspan><tspan x="0" y="40">Users</tspan></text>
    <text id="Identify_Taxonomy_Framework" data-name="Identify
Taxonomy 
Framework" transform="translate(861 540)" fill="#4f3275" font-size="32" font-family="OpenSans-Semibold, Open Sans" font-weight="600"><tspan x="0" y="0">Identify</tspan><tspan x="0" y="40">Taxonomy </tspan><tspan x="0" y="80">Framework</tspan></text>
    <text id="Create_Content" data-name="Create
Content" transform="translate(1245 540)" fill="#be3759" font-size="32" font-family="OpenSans-Semibold, Open Sans" font-weight="600"><tspan x="0" y="0">Create</tspan><tspan x="0" y="40">Content</tspan></text>
    <text id="Distribute_Content_using_Consumption_Channels" data-name="Distribute Content 
using Consumption 
Channels" transform="translate(1585 520)" fill="#50b644" font-size="32" font-family="OpenSans-Semibold, Open Sans" font-weight="600"><tspan x="0" y="0">Distribute Content </tspan><tspan x="0" y="40">using Consumption </tspan><tspan x="0" y="80">Channels</tspan></text>
    <text id="_01" data-name="01" transform="translate(38 581)" fill="#f9bd2c" font-size="86" font-family="OpenSans-Semibold, Open Sans" font-weight="600" letter-spacing="-0.1em"><tspan x="0" y="0">01</tspan></text>
    <text id="_02" data-name="02" transform="translate(389 581)" fill="#0e62ae" font-size="86" font-family="OpenSans-Semibold, Open Sans" font-weight="600" letter-spacing="-0.1em"><tspan x="0" y="0">02</tspan></text>
    <text id="_03" data-name="03" transform="translate(761 581)" fill="#4f3275" font-size="86" font-family="OpenSans-Semibold, Open Sans" font-weight="600" letter-spacing="-0.1em"><tspan x="0" y="0">03</tspan></text>
    <text id="_04" data-name="04" transform="translate(1144 581)" fill="#be3759" font-size="86" font-family="OpenSans-Semibold, Open Sans" font-weight="600" letter-spacing="-0.1em"><tspan x="0" y="0">04</tspan></text>
    <text id="_05" data-name="05" transform="translate(1485 581)" fill="#50b644" font-size="86" font-family="OpenSans-Semibold, Open Sans" font-weight="600" letter-spacing="-0.1em"><tspan x="0" y="0">05</tspan></text>
  </g>
</svg>
